<?xml version="1.0" encoding="iso-8859-1"?>
<!-- Generator: Adobe Illustrator 15.1.0, SVG Export Plug-In  -->
<!DOCTYPE svg [
	<!ENTITY ns_flows "http://ns.adobe.com/Flows/1.0/">
]>
<svg version="1.2" baseProfile="tiny"
	 xmlns="http://www.w3.org/2000/svg" xmlns:xlink="http://www.w3.org/1999/xlink" xmlns:a="http://ns.adobe.com/AdobeSVGViewerExtensions/3.0/"
	 x="0px" y="0px" width="500px" height="300px" viewBox="-45.8 -25.7 500 300" xml:space="preserve">
<defs>
</defs>
<g>
	<g>
		<path fill="#FFFFFF" d="M163.3,239.8h-11.4l18.4-51.7h12.5l18.2,51.7h-11.7l-3.3-10.7h-19.1L163.3,239.8z M169.8,220.2H183
			l-6.4-20.5h-0.1L169.8,220.2z"/>
		<path fill="#FFFFFF" d="M217.9,239.8h-10.8v-51.7h10.8V239.8z"/>
		<path fill="#FFFFFF" d="M266,197.2h-27.4v10.9h25.2v9.1h-25.2v13.4h28.7v9.1H228v-51.7h38V197.2z"/>
	</g>
	<g>
		<path fill="#E0922E" d="M163.3,239.8h-11.4l18.4-51.7h12.5l18.2,51.7h-11.7l-3.3-10.7h-19.1L163.3,239.8z M169.8,220.2H183
			l-6.4-20.5h-0.1L169.8,220.2z"/>
		<path fill="#E0922E" d="M217.9,239.8h-10.8v-51.7h10.8V239.8z"/>
		<path fill="#E0922E" d="M266,197.2h-27.4v10.9h25.2v9.1h-25.2v13.4h28.7v9.1H228v-51.7h38V197.2z"/>
	</g>
	<g>
		<path fill="#4674B8" d="M202.5,240.8h-13.9l-3.3-10.7h-17.6l-3.6,10.7h-13.5l19.1-53.7h13.9L202.5,240.8z M190,238.8h9.6
			l-17.5-49.7h-11l-17.7,49.7h9.2l3.6-10.7h20.5L190,238.8z M184.3,221.2h-15.9l7.3-22.5h1.6L184.3,221.2z M171.2,219.2h10.4
			l-5.1-16.4L171.2,219.2z"/>
		<path fill="#4674B8" d="M218.9,240.8h-12.8v-53.7h12.8V240.8z M208.1,238.8h8.8v-49.7h-8.8V238.8z"/>
		<path fill="#4674B8" d="M268.2,240.8H227v-53.7h40v11.1h-27.4v8.9h25.2v11.1h-25.2v11.4h28.7V240.8z M229,238.8h37.2v-7.1h-28.7
			v-15.4h25.2v-7.1h-25.2v-12.9H265v-7.1h-36V238.8z"/>
	</g>
</g>
<circle fill="#CC2128" cx="114.4" cy="118.2" r="35.6"/>
<circle fill="#9EC54C" cx="62.4" cy="61.6" r="25.5"/>
<circle fill="#4674B8" cx="25" cy="118.7" r="25"/>
<circle fill="#D35A2F" cx="150.5" cy="33.1" r="33.1"/>
<circle fill="#D9B53A" cx="211.8" cy="86.5" r="31.4"/>
<path d="M157.6,29.3c0-0.2,0-0.5-0.1-0.7v-7.1c0.9-0.2,1.6-1,1.6-2c0-1.1-0.9-2-2-2h-5.7c-0.2-1.1-1.2-2-2.4-2c-1.2,0-2.2,0.9-2.4,2
	h-0.7c-1.1,0-2,0.9-2,2c0,1,0.7,1.8,1.6,2v7.1c0,0.2-0.1,0.4-0.1,0.7l-8.9,14.7c0,2.8,2.3,5.1,5.1,5.1h19.8c2.8,0,5.1-2.3,5.1-5.1
	L157.6,29.3z M145.2,41.1c-1.2,0-2.1-1-2.1-2.1s1-2.1,2.1-2.1s2.1,1,2.1,2.1C147.3,40.1,146.4,41.1,145.2,41.1z M151.3,44.9
	c-1,0-1.9-0.8-1.9-1.9c0-1,0.8-1.9,1.9-1.9c1,0,1.9,0.8,1.9,1.9C153.2,44.1,152.4,44.9,151.3,44.9z M152.5,36.9
	c-1.7,0-3.1-1.4-3.1-3.1c0-1.7,1.4-3.1,3.1-3.1c1.7,0,3.1,1.4,3.1,3.1C155.6,35.5,154.2,36.9,152.5,36.9z M154.8,12.1
	c0.9,0,1.7,0.8,1.7,1.7c0,0.9-0.8,1.7-1.7,1.7c-0.9,0-1.7-0.8-1.7-1.7C153.1,12.9,153.9,12.1,154.8,12.1z M149.9,9
	c0.8,0,1.5,0.7,1.5,1.5s-0.7,1.5-1.5,1.5c-0.8,0-1.5-0.7-1.5-1.5S149.1,9,149.9,9z"/>
<path d="M72.9,63.4c0-3.9-2.1-7.3-5.2-9c-0.2-1.7-1.7-3-3.4-3c-0.4,0-0.8,0.1-1.1,0.2v-1.5c0-0.4-0.3-0.7-0.7-0.7v-1.2
	c0,0,0-0.1,0-0.1h0.6c0.3,0,0.5-0.2,0.5-0.5v-0.3c0-0.3-0.2-0.5-0.5-0.5h-3.8c-0.3,0-0.5,0.2-0.5,0.5v0.3c0,0.3,0.2,0.5,0.5,0.5h0.6
	c0,0,0,0.1,0,0.1v1.2c-0.4,0-0.7,0.3-0.7,0.7v10.8c0,0.4,0.3,0.7,0.7,0.7v4.9h0c0.1,0.1,0.6,0.4,1.2,0.4c0.6,0,1.1-0.2,1.2-0.4h0
	v-4.9c0.4,0,0.7-0.3,0.7-0.7v-2.8c0.3,0.1,0.7,0.2,1.1,0.2c1.2,0,2.3-0.7,2.9-1.6c2.1,1.4,3.5,3.9,3.5,6.7c0,1.8-0.5,3.4-1.4,4.7
	l-2.5,1v-0.1H57v1.1h9.8v-0.5l1.9-0.7c-1.3,1.5-3.2,2.4-5.2,2.4v0h-2.2v2.5h-7v2.9h15.3v-2.9h-3.9v-0.6
	C69.8,72.2,72.9,68.2,72.9,63.4z M64.3,57.6c-1.5,0-2.7-1.2-2.7-2.7c0-1.5,1.2-2.7,2.7-2.7c1.2,0,2.2,0.8,2.5,1.8
	c-0.3-0.1-0.6-0.3-1-0.3c-0.4-0.5-0.9-0.8-1.6-0.8c-1.1,0-2,0.9-2,2c0,1.1,0.9,2,2,2c0.7,0,1.3-0.3,1.6-0.9c0.2,0.1,0.4,0.2,0.6,0.3
	C66.1,57.1,65.2,57.6,64.3,57.6z"/>
<path fill="#010302" d="M113.7,113.9l12.7-2.1v17.3c0,1.4-1.1,2.6-2.7,3c-1.8,0.5-3.6-0.3-3.9-1.7c-0.3-1.4,0.8-2.9,2.7-3.4
	c0.8-0.2,1.6-0.2,2.3,0.1v-10.4l-9.3,1.7l0,12.9c0,1.2-1.1,2.4-2.7,2.8c-1.8,0.5-3.7-0.4-3.9-1.7c-0.3-1.4,0.8-2.9,2.6-3.3
	c0.8-0.2,1.6-0.2,2.3,0.1V113.9z M108.9,120.2l0-16c0,0,3.5-0.2,6.9,5.2c0,0,0-2.8-2.6-4.8c-5.1-3.6-5.1-4.4-5.1-4.4
	c-1,0.1-1.1,0.9-1.1,0.9v16.8c-0.7-0.3-1.6-0.3-2.5-0.1c-2,0.5-3.3,2.1-2.9,3.7c0.2,1.4,2.3,2.4,4.3,1.9
	C107.6,122.9,108.9,121.5,108.9,120.2L108.9,120.2z M118.1,109.9c0.6-0.2,1-0.6,1-1.1h0l0-5.6c0,0,1.2-0.1,2.4,1.8c0,0,0-1-0.9-1.7
	c-1.8-1.2-1.8-1.5-1.8-1.5c-0.3,0-0.4,0.3-0.4,0.3v5.9c-0.3-0.1-0.6-0.1-0.9,0c-0.7,0.2-1.1,0.7-1,1.3
	C116.7,109.7,117.5,110,118.1,109.9z M124.1,109.9c0.4-0.1,0.7-0.4,0.7-0.8l0-3.9c0,0,0.8,0,1.7,1.2c0,0,0-0.7-0.6-1.2
	c-1.2-0.9-1.2-1.1-1.2-1.1c-0.2,0-0.3,0.2-0.3,0.2v4.1c-0.2-0.1-0.4-0.1-0.6,0c-0.5,0.1-0.8,0.5-0.7,0.9
	C123.2,109.8,123.7,110,124.1,109.9z"/>
<path fill="#010302" d="M201.5,97.3l-0.2,4.5l1.7,0.7l1.6-4c-0.3,0.1-0.5,0.1-0.8,0.1C202.8,98.6,202,98.1,201.5,97.3z"/>
<path fill="#010302" d="M219.8,98.6c-0.3,0-0.6-0.1-0.9-0.2l1.6,4.1l1.7-0.7l-0.2-4.4C221.6,98.2,220.8,98.6,219.8,98.6z"/>
<polygon fill="#010302" points="201.2,106.8 202.1,103.9 201.3,103.5 "/>
<path fill="#010302" d="M223,106.4c0.2-0.1,0.4-0.3,0.3-0.5l-0.9-2.4l-0.9,0.4l0.9,2.4C222.5,106.4,222.7,106.5,223,106.4z"/>
<circle fill="#010302" cx="203.8" cy="95.8" r="1.4"/>
<circle fill="#010302" cx="219.8" cy="95.8" r="1.4"/>
<path fill="#010302" d="M212,72.9c0.4,0,0.8,0,1.2,0.1v-1.1h1.4v-5.6h-4.9v5.6h1.4v1C211.4,72.9,211.7,72.9,212,72.9z"/>
<path fill="#010302" d="M206.6,79.7c0,1,0.3,1.9,0.7,2.7c0.6,1.1,1.6,1.9,2.8,2.4c0.6,0.2,1.2,0.3,1.8,0.3c0.5,0,1-0.1,1.4-0.2
	c1.2-0.3,2.2-1.1,2.9-2.1c0.6-0.9,1-2,1-3.1c0-3-2.4-5.4-5.4-5.4C209,74.3,206.6,76.7,206.6,79.7z M212,77.2c1.3,0,2.4,1.1,2.4,2.4
	s-1.1,2.4-2.4,2.4c-1.3,0-2.4-1.1-2.4-2.4S210.7,77.2,212,77.2z"/>
<path fill="#010302" d="M199.3,88.6v2.1h2.1V90h2.9l-1.3,3.2c0.3-0.1,0.5-0.1,0.8-0.1c1,0,2,0.6,2.4,1.4l1.8-4.5h3.1v2.1
	c0,0.3,0.3,0.6,0.6,0.6h0.1c0.3,0,0.6-0.3,0.6-0.6V90h3l1.8,4.6c0.5-0.9,1.4-1.5,2.5-1.5c0.2,0,0.5,0,0.7,0.1l-1.3-3.1h3v0.7h2.1
	v-2.1h-2.1v0.7H219l-2-5c-0.8,0.9-1.8,1.5-3,1.9l1.3,3.1h-2.7v-1.5c0-0.3-0.3-0.6-0.6-0.6h-0.1c-0.3,0-0.6,0.3-0.6,0.6v1.5h-2.8
	l1.3-3.3c-1.2-0.4-2.2-1.2-2.9-2.1l-2.1,5.4h-3.2v-0.7H199.3z"/>
<path fill="#040505" d="M13.5,115.5c0-6.5,5.3-11.9,11.9-11.9c5.4,0,10,3.7,11.4,8.6c-0.3,0.3-0.4,0.6-0.5,1l-0.1,1l-0.2,1.2l-1.2,0
	c0-5.2-4.2-9.4-9.3-9.4c-5.2,0-9.3,4.2-9.3,9.4c0,3.5,1.9,6.5,4.8,8.2l-1.8,1.8C15.7,123.4,13.5,119.7,13.5,115.5z M25.4,108.1
	c-0.7,0-1.3,0.6-1.3,1.3v6.2c0,0.7,0.6,1.3,1.3,1.3h7.1c0.7,0,1.3-0.6,1.3-1.3s-0.6-1.3-1.3-1.3h-5.9v-4.9
	C26.6,108.7,26.1,108.1,25.4,108.1z M38.5,113.6c0-0.3-0.3-0.6-0.6-0.6c-0.3,0-0.6,0.2-0.7,0.6l-0.1,1.1l-0.2,1.3
	c-0.1,0.4-0.2,0.9-0.4,1.4l-0.3,0.8l-0.4,0.9c-0.1,0.4-0.4,0.7-0.6,1.1c-0.1,0.2-0.2,0.4-0.3,0.6c-0.1,0.2-0.2,0.3-0.3,0.5
	c-0.3,0.4-0.6,0.8-0.9,1.2c-0.3,0.4-0.7,0.8-1.1,1.2c-0.1,0.1-0.2,0.2-0.4,0.3c-0.1,0.1-0.3,0.2-0.4,0.3c-0.4,0.3-0.9,0.7-1.3,0.9
	c-0.4,0.3-0.8,0.5-1.2,0.7c-0.2,0.1-0.3,0.2-0.5,0.3c-0.2,0.1-0.4,0.2-0.6,0.2c-0.4,0.2-0.7,0.3-1.1,0.4l-0.8,0.2l-0.8,0.1
	c-0.4,0.1-0.8,0.1-1.1,0.1l-0.7,0.1l-0.1,0v-2.9c0-0.3-0.2-0.5-0.4-0.6c-0.2-0.1-0.5,0-0.7,0.1l-5.4,5.4c-0.1,0.1-0.2,0.3-0.2,0.4
	c0,0.2,0.1,0.3,0.2,0.4l5.4,5.4c0.1,0.1,0.3,0.2,0.4,0.2c0.1,0,0.2,0,0.2,0c0.2-0.1,0.4-0.3,0.4-0.6V132l1.2-0.2
	c0.5-0.1,1.2-0.3,1.8-0.5l0.7-0.3l1.2-0.5c0.5-0.2,1-0.5,1.5-0.8c0.2-0.1,0.4-0.2,0.6-0.4c0,0,0,0,0.1,0c0.2-0.1,0.3-0.2,0.5-0.4
	c0.5-0.4,1-0.7,1.5-1.1c0.6-0.4,1-1,1.5-1.4l0.3-0.4c0,0,0,0,0,0l0.3-0.4c0.4-0.5,0.9-1.1,1.2-1.6c0.4-0.5,0.6-1.1,0.9-1.6
	c0.1-0.2,0.2-0.4,0.3-0.5c0,0,0,0,0-0.1c0.1-0.2,0.2-0.4,0.3-0.7c0.2-0.5,0.4-1,0.5-1.5l0.3-1l0.2-0.9c0.1-0.6,0.2-1.1,0.2-1.6
	l0.1-0.8L38.5,113.6z"/>
<circle fill="#CC2D78" cx="312.7" cy="110.7" r="31.1"/>
<circle fill="#5A308D" cx="397.9" cy="99.5" r="33.8"/>
<path fill="#010302" d="M321.8,106.4c0-6.2-5-11.3-11.3-11.3s-11.3,5-11.3,11.3c0,1.3,0.2,2.1,0.6,3.4c0.8,2.4,5.2-2.1,7.1,0.6
	c1.9,2.7-4.3,5-0.1,6.6c1.9,0.5,2.4,0.6,3.7,0.6C316.8,117.6,321.8,112.6,321.8,106.4z M320.7,105.7c0,1.1-1,2-2.3,2
	c-1.3,0-2.3-0.9-2.3-2c0-1.1,1-2,2.3-2C319.6,103.7,320.7,104.6,320.7,105.7z M316,98.9c1.3,0,2.3,0.9,2.3,2s-1,2-2.3,2
	s-2.3-0.9-2.3-2S314.7,98.9,316,98.9z M302.9,107.1c-1.3,0-2.3-0.9-2.3-2s1-2,2.3-2s2.3,0.9,2.3,2S304.2,107.1,302.9,107.1z
	 M305.6,102.5c-1.3,0-2.3-0.9-2.3-2c0-1.1,1-2,2.3-2s2.3,0.9,2.3,2C307.9,101.7,306.9,102.5,305.6,102.5z M308.4,98.3
	c0-1.1,1-2,2.3-2c1.3,0,2.3,0.9,2.3,2s-1,2-2.3,2S308.4,99.4,308.4,98.3z M312.4,116.1c-1.3,0-2.3-0.9-2.3-2c0-1.1,1-2,2.3-2
	c1.3,0,2.3,0.9,2.3,2C314.8,115.2,313.7,116.1,312.4,116.1z M314.8,110.7c0-1.1,1-2,2.3-2c1.3,0,2.3,0.9,2.3,2c0,1.1-1,2-2.3,2
	C315.8,112.7,314.8,111.8,314.8,110.7z"/>
<path fill="#010302" d="M329,112.8c0.4-0.4,0.4-1,0-1.4c-0.4-0.4-1-0.5-1.4-0.1l0,0l-9.6,8.6c-1.3-1.1-2.6-0.9-4.1,0.4
	c-1.2,1.1-1.4,2.9-2.1,4.5c-0.2,0.5-0.7,1.3-1,1.7c-0.2,0.3-0.3,0.5-0.1,0.7c0.4,0.4,1.7,0.4,3.1,0.1l0,0c1.8-0.3,3.8-1,4.7-1.9
	c1.5-1.6,1.7-2.7,0.9-4L329,112.8L329,112.8z M313.5,126.5c0,0.1-0.1,0.2-0.1,0.3c-1.3,0.2-2.1,0.1-2.3,0c0,0,0-0.1,0.1-0.1
	c0.3-0.3,0.6-0.9,0.9-1.3c0.5,0.2,1.1,0.3,1.7,0.2C313.6,125.9,313.5,126.2,313.5,126.5z"/>
<polygon fill="#010302" points="398.8,115.2 392,115.2 392,117 398.8,117 399,117 405.9,117 405.9,115.2 399,115.2 "/>
<path fill="#010302" d="M407.4,86.4c0-0.1,0-1.7,0-2.8h1.3v-1H399h-0.2h-9.7v1h1.3c0,1.1,0,2.7,0,2.8l-5.6-1.1
	c0,0,2.1,11.4,9.8,11.4c0,0,0.1,0,0.1,0c0.4,0.5,0.9,0.9,1.4,1.3c-0.3,0-0.6,0.3-0.6,0.6c0,0.3,0.3,0.6,0.6,0.6h0.8l-1.9,7.9h-1.4
	v7.5h5.1h0.2h5.1v-7.5h-1.4l-1.9-7.9h0.8c0.3,0,0.6-0.3,0.6-0.6c0-0.3-0.3-0.6-0.6-0.6c0.5-0.3,0.9-0.8,1.4-1.3c0,0,0.1,0,0.1,0
	c7.7,0,9.8-11.4,9.8-11.4L407.4,86.4z M386.4,86.6l4.2,0.9c0.4,2.5,1.6,5.7,3.3,8C389.3,95,387.2,89,386.4,86.6z M397,96.1
	c-0.2,0-0.4-0.1-0.5-0.2c-3.8-4.4-4.2-9.4-4.2-9.9c0-0.4,0.3-0.7,0.7-0.7c0.4,0,0.7,0.3,0.7,0.7c0,0.2,0.4,5,3.9,9.1
	c0.3,0.3,0.2,0.7-0.1,1C397.3,96,397.2,96.1,397,96.1z M402.7,108.1v5.2H399h-0.2h-3.7v-5.2h3.7h0.2H402.7L402.7,108.1z M404,95.5
	c1.7-2.4,2.9-5.5,3.3-8l4.2-0.9C410.7,89,408.5,95,404,95.5z"/>
<circle fill="#5AA69C" cx="274.9" cy="46.9" r="25"/>
<path fill="#010302" d="M279.7,53.4c-0.8-0.5-7.8-5.3-9.7-8.6l-0.1-0.2l-0.2,0c-1.6-0.1-2.9,0.9-3.4,1.4c-0.2-0.2-0.4-0.5-0.7-0.7
	l-0.3-0.3l-0.3,0.3c-1.1,1.1-1.5,2.1-1.4,3c0.1,0.7,0.6,1.4,1.5,1.9c0.2,0.1,1.9,1.3,3.9,2.9c-0.3,0.3-1.6,1.1-2,1.5
	c-0.5,0.4-2.6,2.2-2.6,2.2l1.3,0.3l0.5,0.9c0,0,0.6-1.6,1.3-2.3c0.7-0.8,1.9-1.4,1.9-1.4s-0.7,0.9-1.1,1.9c-0.5,0.9-0.6,2.5-0.6,2.5
	l0.8-0.3l0.6,1.2c0,0,0.2-1.7,0.5-2.9c0.3-0.9,1-1.8,1.2-2.1c2.5,2.2,5.1,4.8,5.6,5.3c0.3,0.4,0.7,0.6,1.2,0.7
	c0.2,0,0.4,0.1,0.6,0.1c1.1,0,2.1-0.7,2.7-1.8c0.8-1.4,1-3.4-0.3-4.8C280.3,53.7,280,53.5,279.7,53.4z M269.2,52.2
	c-1.8-1.4-3.4-2.5-3.7-2.7c-0.7-0.4-1-0.8-1.1-1.3c-0.1-0.6,0.2-1.3,0.9-2.1c1.8,1.8,3.2,3.2,4.5,4.3
	C269.3,51.3,269.2,51.8,269.2,52.2z M270.3,49.7c-1-0.9-2.2-2-3.5-3.3c0.4-0.4,1.4-1.1,2.6-1.1c0.6,1,1.7,2.2,2.9,3.3
	C271.7,48.7,270.9,48.9,270.3,49.7z M271.1,53.7c0.1-0.5,0.2-1.2,0.6-1.8c2.2,1.8,3.5,2.5,4,2.7c-0.1,0.6-0.2,2.1,0,3.5
	C274.5,56.8,272.7,55.1,271.1,53.7z M280.4,58.5c-0.5,0.8-1.4,1.7-2.5,1.4c-1.9-0.4-1.7-4.1-1.4-5.5l0.1-0.4l-0.3-0.1
	c0,0-1.2-0.3-4.1-2.7c0.6-0.6,1.4-0.9,2.1-1.1c1.7,1.4,3.3,2.6,4.3,3.3c0,0-0.1,0-0.1,0c-1.1,0.6-1.6,2.5-1.4,3.4
	c0.3,1.1,1,1.7,1.7,1.7c0.3,0,1.1-0.2,1.4-1.6l0-0.2l-0.2-0.1c-1.1-0.9-1.6-1.4-1.9-1.7c0.2-0.3,0.4-0.6,0.7-0.8
	c0.4-0.2,0.9-0.1,1.4,0.5C281.2,55.7,281,57.4,280.4,58.5z M279.3,57.1c-0.1,0.5-0.4,0.8-0.6,0.8c0,0,0,0,0,0c-0.3,0-0.8-0.4-1-1.2
	c-0.1-0.2,0-0.6,0-1C278.1,56,278.5,56.4,279.3,57.1z"/>
<path fill="#010302" d="M267.1,39.3l-1.2,3.8c0,0,4.9,0.5,9,1.7c4.1,1.3,8.4,3.7,8.4,3.7l1.2-3.9c0,0-3.7-3.7-8-5
	C272.1,38.3,267.1,39.3,267.1,39.3z"/>
<path fill="#010302" d="M291.7,44.7l-1.4-1.5l0.1-0.5c0,0,1.3-2.3-1.9-1.9c-0.2,0-0.3,0.1-0.3,0.2l-9.4-9.9l-17.6,3.9l4.8,4.3
	l0.3-0.8c0,0,5.6-1.2,10.4,0.3c4.8,1.5,8.9,5.6,8.9,5.6l-0.5,1.5l3.6-0.7c-0.6,1.9-1.3,4.2-1.5,4.9l-1-0.3l-0.8,2.4l1.7-0.5l1.2,1.4
	l0.8-2.4l-1.1-0.4l1.6-5.3L291.7,44.7z M289.6,44.2c-0.1,0.4-0.6,0.6-1,0.5c-0.4-0.1-0.6-0.6-0.5-1c0.1-0.4,0.6-0.6,1-0.5
	C289.5,43.3,289.7,43.8,289.6,44.2z M288.9,41.8c0.4-0.1,1.1-0.2,0.9,0.3c0,0.1-0.1,0.2-0.1,0.5L288.9,41.8z"/>
<circle fill="#BDB39B" cx="357.2" cy="36.8" r="32.5"/>
<path fill="#111212" d="M364.8,50c-0.6-3.1,1-6.3,1.6-9.4c0.8-1,1.2-2.4,0.5-3.8c-2.1-4.2-5.3-7.4-8.3-11c-2.8-3.4-7.6,1.5-4.8,4.9
	c0.9,1,1.7,2,2.6,3c0.1,1.9,0,3.8-1,5.4c-0.5,0.8-0.2,1.6,0.3,2.2l-0.6,1.7l-1.1-0.4L349.1,55c0,0,1,3.1,3.6,1.3
	c0.8-2.2,4.8-12.6,4.8-12.6l-1.1-0.4l0.6-1.7c0.5,0,1-0.3,1.3-0.9c0.6-0.9,0.9-1.9,1.1-2.9c0.5,0.7,0.9,1.5,1.3,2.3
	c0.2,0.4,0.5,0.8,0.8,1c-0.6,3-1.9,5.8-1.5,8.9c0.3,2.3,1,4.6,1.8,6.7c1,2.8,5.4,1.6,4.4-1.2C365.7,53.8,365.2,51.9,364.8,50z"/>
<path fill="#111212" d="M349.6,21.2c0,0.2,0,0.4,0.1,0.6c0,0.1,0.1,0.3,0.1,0.4l-1,0.8c-0.1,0.1-0.1,0.2,0,0.3
	c0.1,0.1,1.7,2.1,3.3,1.7c0.2-0.1,0.4-0.2,0.6-0.3c0,0,0,0,0,0l0.2-0.3c0.3,0,0.7,0,1-0.1c1.8-0.5,2.9-2.4,2.4-4.2
	c-0.5-1.8-2.4-2.9-4.2-2.4c-1.4,0.4-2.4,1.6-2.5,3l-1.8,0.5l0.2,0.6L349.6,21.2z M352.5,24.3L352.5,24.3c-0.6,0.5-1.2,0.4-1.7,0.1
	l0.5-0.5C351.7,24.1,352.1,24.3,352.5,24.3z M351,23.6l-0.5,0.5c0,0,0,0,0,0c-0.5-0.3-1-0.8-1.2-1l0.8-0.6
	C350.3,23,350.6,23.4,351,23.6z"/>
<path fill="#111212" d="M348,36.8c-0.4,0-0.8,0.4-0.8,0.8v15.7c0,0.4,0.4,0.8,0.8,0.8s0.8-0.4,0.8-0.8V37.6
	C348.8,37.1,348.4,36.8,348,36.8z"/>
<path fill="#111212" d="M351.9,37.6c0-0.4-0.4-0.8-0.8-0.8s-0.8,0.4-0.8,0.8v12.1l1.6-4.1V37.6z"/>
<path fill="#111212" d="M355,37.7v-0.1c0-0.4-0.4-0.8-0.8-0.8s-0.8,0.4-0.8,0.8v3.9l0.1-0.2l1.1,0.4l0,0c-0.6-0.9-0.6-2,0-3
	C354.8,38.4,354.9,38,355,37.7z"/>
<path fill="#111212" d="M350.8,36.3c0-0.2-0.2-0.4-0.4-0.4h-2c-0.2,0-0.4,0.2-0.4,0.4c0,0.2,0.2,0.4,0.4,0.4h2
	C350.6,36.8,350.8,36.6,350.8,36.3z"/>
<path fill="#111212" d="M353.8,35.9h-2c-0.2,0-0.4,0.2-0.4,0.4c0,0.2,0.2,0.4,0.4,0.4h2c0.2,0,0.4-0.2,0.4-0.4
	C354.2,36.1,354,35.9,353.8,35.9z"/>
<g>
	<path fill="none" stroke="#4674B8" stroke-width="3" d="M148.5,225.2H35c-5.5,0-10-4.5-10-10v-71.5"/>
</g>
<path fill="none" stroke="#9EC54C" stroke-width="3" d="M159,204.2H72.4c-5.5,0-10-4.5-10-10V87.1"/>
<path fill="none" stroke="#CC2128" stroke-width="3" d="M162.2,191.2h-37.7c-5.5,0-10-4.5-10-10v-27.4"/>
<path fill="none" stroke="#D35A2F" stroke-width="3" d="M166.5,182.2V98.1c0-5.5-3.6-10-8-10s-8-4.5-8-10v-12"/>
<line fill="none" stroke="#D9B53A" stroke-width="3" x1="211.8" y1="117.9" x2="211.8" y2="182.2"/>
<path fill="none" stroke="#5AA69C" stroke-width="3" d="M256.2,182.2v-77.8c0-5.5,4.2-10,9.4-10c5.2,0,9.4-4.5,9.4-10V71.9"/>
<path fill="none" stroke="#CA0088" stroke-width="3" d="M272.6,191.2h30.1c5.5,0,10-4.5,10-10v-39.4"/>
<path fill="none" stroke="#BDB39B" stroke-width="3" d="M272.6,204.2h67.7c5.5,0,10-4.5,10-10v-89.8c0-5.5,1.5-10,3.4-10
	c1.9,0,3.4-4.5,3.4-10V69.3"/>
<path fill="none" stroke="#5A308D" stroke-width="3" d="M272.6,225.2h115.3c5.5,0,10-4.5,10-10v-81.9"/>
</svg>
